<svg xmlns="http://www.w3.org/2000/svg" width="9.749" height="9.749" viewBox="0 0 9.749 9.749">
  <g id="Group_6888" data-name="Group 6888" transform="translate(186.751 -78.415)">
    <path id="Path_539" data-name="Path 539" d="M-178.448,78.415H-185.3a1.45,1.45,0,0,0-1.446,1.446v6.856a1.45,1.45,0,0,0,1.446,1.446h6.856A1.45,1.45,0,0,0-177,86.718V79.861A1.45,1.45,0,0,0-178.448,78.415Zm.634,8.3a.634.634,0,0,1-.634.634H-185.3a.634.634,0,0,1-.634-.634V79.861a.634.634,0,0,1,.634-.634h6.856a.634.634,0,0,1,.634.634Z" fill="#ddd"/>
    <path id="Path_540" data-name="Path 540" d="M-164.814,97.915a2.437,2.437,0,0,0-2.437,2.437,2.437,2.437,0,0,0,2.437,2.437,2.437,2.437,0,0,0,2.437-2.437A2.437,2.437,0,0,0-164.814,97.915Zm0,4.062a1.625,1.625,0,0,1-1.625-1.625,1.625,1.625,0,0,1,1.625-1.625,1.625,1.625,0,0,1,1.625,1.625A1.625,1.625,0,0,1-164.814,101.977Z" transform="translate(-17.063 -17.063)" fill="#ddd"/>
    <circle id="Ellipse_3" data-name="Ellipse 3" cx="0.609" cy="0.609" r="0.609" transform="translate(-179.846 80.04)" fill="#ddd"/>
  </g>
</svg>
