<svg xmlns="http://www.w3.org/2000/svg" width="9.749" height="6.749" viewBox="0 0 9.749 6.749">
  <g id="Group_6889" data-name="Group 6889" transform="translate(185.864 -11.047)">
    <path id="Path_541" data-name="Path 541" d="M-185.114,11.047a.723.723,0,0,0-.4.121l4.222,4a.419.419,0,0,0,.609,0l4.214-4a.722.722,0,0,0-.4-.121Zm-.7.516a.79.79,0,0,0-.047.262v5.195a.793.793,0,0,0,.121.426l2.984-2.98Zm9.655,0-3.05,2.9,2.976,2.984a.794.794,0,0,0,.121-.426V11.824a.793.793,0,0,0-.047-.262Zm-3.414,3.246-.762.723a.943.943,0,0,1-1.3,0l-.762-.719-2.953,2.945a.725.725,0,0,0,.234.039h8.249a.725.725,0,0,0,.234-.039Z" fill="#ddd"/>
  </g>
</svg>
